<mxfile host="Electron" modified="2023-12-31T01:03:36.489Z" agent="Mozilla/5.0 (Windows NT 10.0; Win64; x64) AppleWebKit/537.36 (KHTML, like Gecko) draw.io/22.1.16 Chrome/120.0.6099.109 Electron/28.1.0 Safari/537.36" etag="F4Ey1jqQT-B2BDvC4tyi" version="22.1.16" type="device">
  <diagram name="Page-1" id="xCV3qbr-aHJIMHQM99jd">
    <mxGraphModel dx="543" dy="373" grid="1" gridSize="10" guides="1" tooltips="1" connect="1" arrows="1" fold="1" page="1" pageScale="1" pageWidth="850" pageHeight="1100" math="0" shadow="0">
      <root>
        <mxCell id="0" />
        <mxCell id="1" parent="0" />
        <mxCell id="qd-W6-Yyjhlh6UygpdSp-1" value="&lt;font face=&quot;consolas&quot;&gt;const int &lt;b&gt;*ptc1&lt;/b&gt;;&lt;/font&gt;" style="rounded=0;whiteSpace=wrap;html=1;strokeColor=none;fillColor=#fad7ac;align=center;" vertex="1" parent="1">
          <mxGeometry x="120" y="160" width="120" height="20" as="geometry" />
        </mxCell>
        <mxCell id="qd-W6-Yyjhlh6UygpdSp-2" value="&lt;p style=&quot;line-height: 100%;&quot;&gt;&lt;font face=&quot;Consolas&quot;&gt;int const &lt;b&gt;*ptc2&lt;/b&gt;;&lt;/font&gt;&lt;/p&gt;" style="rounded=0;whiteSpace=wrap;html=1;strokeColor=none;fillColor=#fad7ac;align=center;" vertex="1" parent="1">
          <mxGeometry x="120" y="180" width="120" height="20" as="geometry" />
        </mxCell>
        <mxCell id="qd-W6-Yyjhlh6UygpdSp-3" value="&lt;p style=&quot;line-height: 100%;&quot;&gt;&lt;font face=&quot;Consolas&quot;&gt;int* const &lt;b&gt;cp&lt;/b&gt;;&lt;/font&gt;&lt;/p&gt;" style="rounded=0;whiteSpace=wrap;html=1;strokeColor=none;fillColor=#b1ddf0;align=center;" vertex="1" parent="1">
          <mxGeometry x="120" y="230" width="120" height="20" as="geometry" />
        </mxCell>
        <mxCell id="qd-W6-Yyjhlh6UygpdSp-4" value="&lt;font face=&quot;consolas&quot;&gt;指向常量的指针&lt;br&gt;*ptc1/*ptc2不可变&lt;br&gt;ptc1/ptc2可变&lt;br&gt;&lt;/font&gt;" style="text;html=1;strokeColor=none;fillColor=none;align=center;verticalAlign=middle;whiteSpace=wrap;rounded=0;" vertex="1" parent="1">
          <mxGeometry x="260" y="150" width="120" height="60" as="geometry" />
        </mxCell>
        <mxCell id="qd-W6-Yyjhlh6UygpdSp-5" value="&lt;font face=&quot;consolas&quot;&gt;常量指针&lt;br&gt;*cp可变&lt;br&gt;cp不可变&lt;br&gt;&lt;/font&gt;" style="text;html=1;strokeColor=none;fillColor=none;align=center;verticalAlign=middle;whiteSpace=wrap;rounded=0;" vertex="1" parent="1">
          <mxGeometry x="260" y="210" width="120" height="60" as="geometry" />
        </mxCell>
      </root>
    </mxGraphModel>
  </diagram>
</mxfile>
